# xmcd
#
# Track frame offsets: 
#        150
#        15980
#        30212
#        43186
#        57103
#        74177
#        88353
#        107584
#        117752
#        133815
#        147659
#
# Disc length: 2119 seconds
#
# Revision: 0
# Processed by: cddbd v1.5.2PL0 Copyright (c) Steve Scherf et al.
# Submitted via: ExactAudioCopyFreeDBPlugin 1.0
#
DISCID=9d08450b
DTITLE=The Hoax - Recession Blues A Tribute To BB King
DYEAR=1900
DGENRE=Blues
TTITLE0=Ten Long Years
TTITLE1=Crying Won't Help You
TTITLE2=I Want To Get Married
TTITLE3=Dark Is The Night
TTITLE4=Troubles, Troubles, Troubles
TTITLE5=Blind Love
TTITLE6=It's My Own Fault Baby
TTITLE7=You Upset Me Baby
TTITLE8=I've Got A Mind To Give Up Living
TTITLE9=Please Love Me
TTITLE10=Recession Blues
EXTD=
EXTT0=
EXTT1=
EXTT2=
EXTT3=
EXTT4=
EXTT5=
EXTT6=
EXTT7=
EXTT8=
EXTT9=
EXTT10=
PLAYORDER=
